<svg xmlns="http://www.w3.org/2000/svg" viewBox="0 0 120 120" fill="#037ecc">
  <g transform="matrix(1.143169728329733,0,0,1.143169728329733,-15.940042373472657,-27.379648487867776)">
    <path d="M58.52 101.48a.31.31 0 0 0-.26-.47q-8.56.05-9.33.06-6.67.08-9.27-.83-8.21-2.86-8.2-12.5.03-20.24-.02-27.31-.04-5.94 1.43-8.62c2.98-5.45 7.57-5.99 13.81-5.97q27.69.04 55.36-.02 7.63-.02 10.26 1.14c5.37 2.35 6.61 7.19 6.61 13.09q.01 20.59 0 25.64c-.01 6.46-.97 11.51-6.92 14.14-4.07 1.8-10.76 1.16-15.99 1.16a.12.12 0 0 0-.1.18l8.49 14.7q.9 1.55-.76 2.98-.05.05-.08.06-2.09 1.25-3.28-.67l-4.68-7.49a.92.9 73.7 0 0-.77-.43H59.47q-.58 0-.89.49l-4.65 7.32q-1.21 1.91-3.16.78-.02-.02-.08-.06-2.09-1.48-.83-3.48zm55.37-44.07a6.61 6.61 0 0 0-6.61-6.61h-64.2a6.61 6.61 0 0 0-6.61 6.61v32.02a6.61 6.61 0 0 0 6.61 6.61h64.2a6.61 6.61 0 0 0 6.61-6.61zm-22.221 45.435a.27.27 0 0 0-.27-.27l-28.44.05a.27.27 0 0 0-.27.27l.002 1.1a.27.27 0 0 0 .27.27l28.44-.05a.27.27 0 0 0 .27-.27z"></path>
    <path d="M111.41 88.03a5.35 5.35 0 0 1-5.35 5.35H44.48a5.35 5.35 0 0 1-5.35-5.35V58.85a5.35 5.35 0 0 1 5.35-5.35h61.58a5.35 5.35 0 0 1 5.35 5.35zm-5-29.15a.5.5 0 0 0-.5-.5h-61.3a.5.5 0 0 0-.5.5v29.1a.5.5 0 0 0 .5.5h61.3a.5.5 0 0 0 .5-.5z"></path>
  </g>
</svg>